<?xml version="1.0" encoding="UTF-8"?>
<svg id="Layer_1" data-name="Layer 1" xmlns="http://www.w3.org/2000/svg" viewBox="0 0 83.23 41.74">
  <defs>
    <style>
      .cls-1, .cls-2 {
        isolation: isolate;
      }

      .cls-2 {
        font-family: IBMPlexMono-MediumItalic, 'IBM Plex Mono';
        font-size: 17.45px;
        font-style: italic;
        font-weight: 500;
      }
    </style>
  </defs>
  <rect y="31.07" width="33.57" height="4.56"/>
  <g>
    <rect width="4.56" height="35.63"/>
    <g>
      <path d="M23.85,29.94c1.05-1.3,2-2.92,2.71-4.75.76.38,1.63.59,2.49.59,2.95,0,5.35-2.3,5.35-5.11s-2.4-5.11-5.35-5.11c-.21,0-.4.03-.63.04,0-.29.02-.59.02-.9H5.74c0,6.24,1.83,11.78,4.61,15.23h13.49ZM28.39,16.68c.21-.04.46-.06.67-.06,2.28,0,4.13,1.82,4.13,4.03s-1.85,4.03-4.13,4.03c-.76,0-1.49-.19-2.11-.58.76-2.22,1.27-4.73,1.44-7.42h0Z"/>
      <path d="M11.36,13c.34,0,.59-.24.59-.53v-2.22c0-.29-.27-.53-.59-.53s-.59.24-.59.53v2.21c-.02.28.26.54.59.54Z"/>
      <path d="M17.11,13c.34,0,.59-.24.59-.53v-4.27c0-.29-.27-.53-.59-.53s-.59.24-.59.53v4.27c0,.28.27.53.59.53Z"/>
      <path d="M22.85,13c.34,0,.59-.24.59-.53v-2.22c0-.29-.27-.53-.59-.53s-.59.24-.59.53v2.21c0,.28.26.54.59.54Z"/>
    </g>
    <g class="cls-1">
      <text class="cls-2" transform="translate(35.07 35.63) scale(1.15 1)"><tspan x="0" y="0">offy</tspan></text>
    </g>
  </g>
</svg>