<?xml version="1.0" encoding="UTF-8"?>
<svg id="Layer_1" data-name="Layer 1" xmlns="http://www.w3.org/2000/svg" viewBox="0 0 102.82 30.69">
  <defs>
    <style>
      .cls-1 {
        fill: none;
      }
    </style>
  </defs>
  <path d="M27.17,11.57v2.01s1.17-1.26,1.17-1.26c1.71-1.46,4.48-1.48,6.13.08l1,1.35c1.96-3.34,7.2-3.48,8.72.34.08.19.42,1.17.42,1.26v10.15h-3.19v-9.14c0-.22-.41-1.19-.58-1.43-.99-1.41-3.38-1.11-4.36.19-.09.12-.6,1.02-.6,1.08v9.31h-3.02l-.16-9.48c-.3-2.11-2.93-2.69-4.42-1.4-.2.17-.95,1.25-.95,1.4v9.48h-2.94l-.25-.25v-13.67h3.02Z"/>
  <path d="M79,6.71v12.08l6.29-7.21h3.61l-5.52,6.44,5.69,7.49h-3.61l-4.77-6.3c-.44-.42-1.12-.19-1.69-.24v6.29l-.25.25h-2.68l-.22-.25c0-.07.13-.13.13-.17V6.71h3.02Z"/>
  <path d="M52.97,11.28c5.59-.17,8.21,4.15,7.33,9.36-.67,3.96-4.99,5.78-8.61,4.91-7.59-1.82-6.66-14.03,1.28-14.27ZM52.62,13.96c-4.07.7-3.98,10.13,1.76,9.14,4.11-.71,3.91-10.12-1.76-9.14Z"/>
  <path d="M92.58,11.57l3.44,10.57,3.69-10.57h3.1l-5.5,15.21c-.49.88-.89,2.03-1.62,2.74-.22.22-1.68,1.17-1.85,1.17h-3.44v-2.68c2.01.49,3.49-.09,3.85-2.25l-5.19-14.19h3.52Z"/>
  <path class="cls-1" d="M52.62,13.96c5.68-.98,5.88,8.44,1.76,9.14-5.74.99-5.84-8.44-1.76-9.14Z"/>
  <path d="M73.46,15.77h-3.02c-.23-1.91-2.29-2.53-3.95-2.02-1.77.54-1.77,2.44-.02,3.06,2.42.87,6.83.2,7.42,3.65.44,2.55-.98,4.4-3.41,4.99-3.57.87-8.37.07-8.76-4.31h3.19c-.22,3.8,7.84,2.4,5.54-.42-1.16-1.43-6.06-.44-7.79-2.94-1.32-1.91-.64-4.53,1.36-5.66,3.08-1.74,9.56-.86,9.44,3.66Z"/>
  <g>
    <path d="M10.06,15.77l-2.6,2.97c-4.97-2.04-4.8-9.19.14-11.22,2.22-.91,6.22-1.09,8.5-.39.39.12,1.33.33.84.84l-2.3,2.06c-1.65.14-3.33-.16-4.95.25-3.53.89-3.18,5.15.37,5.49Z"/>
    <path d="M7.55,25.66c-.17-.18.52-.78.67-.92.68-.65,1.58-1.24,2.29-1.89,2.08.26,6.48.53,7.16-2.08.37-1.4.06-2.56-1.28-3.19l-1.29-.47c1.21-.5,1.74-1.93,2.8-2.66,1.86.37,3.06,2.48,3.23,4.26.75,7.84-7.94,8.48-13.58,6.96Z"/>
    <path d="M10.23,19.12L26.16,0l-6.04,9.64c-3.54,2.9-6.52,6.39-9.89,9.48Z"/>
    <path d="M7.55,22.48L0,30.53l6.21-8.14c.41-.25.91.09,1.34.09Z"/>
  </g>
</svg>